<svg viewBox="0 0 32 33" fill="currentColor" xmlns="http://www.w3.org/2000/svg" aria-hidden="true" class="flex-shrink-0 pointer-events-none text-gray w-8 h-8 ">
	<path fill-rule="evenodd" clip-rule="evenodd" d="M15.9999 8C18.2091 8 19.9999 6.20914 19.9999 4C19.9999 1.79086 18.2091 0 15.9999 0C13.7908 0 11.9999 1.79086 11.9999 4C11.9999 6.20914 13.7908 8 15.9999 8ZM21.9612 11.0641L24.1577 17.4933C24.3984 17.987 24.1577 18.5903 23.6076 18.8646C23.3669 18.9743 23.0918 19.0291 22.8511 19.0291C22.301 19.0291 21.7508 18.7274 21.5445 18.2886L19.7463 13.5597V30.7658C19.7463 31.5337 18.921 32.137 17.9583 32.0548C17.0987 31.9999 16.4797 31.3966 16.4797 30.711V21.3047C16.4797 21.0853 16.2734 20.9207 15.9984 20.9207C15.7233 20.9207 15.517 21.0853 15.517 21.3047V30.7658C15.517 31.5337 14.6918 32.137 13.729 32.0548C12.8694 31.9999 12.2505 31.3966 12.2505 30.711V13.5597L10.2501 18.3464C10.0094 18.9223 9.18417 19.224 8.4621 19.0046C7.74002 18.8126 7.36179 18.1544 7.63687 17.5785L9.77977 11.0641C10.3643 9.82996 11.8085 9.03464 13.4245 9.03464H18.3165C19.9326 9.03464 21.4111 9.85738 21.9612 11.0641Z"></path>
</svg>