<svg viewBox="0 0 32 32" fill="currentColor" xmlns="http://www.w3.org/2000/svg" aria-hidden="true" class="flex-shrink-0 pointer-events-none w-4 h-4">
	<path fill-rule="evenodd" clip-rule="evenodd" d="M32 7V29C32 30.6562 30.4642 32 28.5714 32H3.42857C1.53571 32 0 30.6562 0 29V7C0 5.34375 1.53571 4 3.42857 4H6.85714V0.75C6.85714 0.337499 7.24286 0 7.71429 0H10.5714C11.0429 0 11.4286 0.337499 11.4286 0.75V4H20.5714V0.75C20.5714 0.337499 20.9571 0 21.4286 0H24.2857C24.7573 0 25.1429 0.337499 25.1429 0.75V4H28.5714C30.4642 4 32 5.34375 32 7ZM22.8571 19.8367V21.3061C22.8571 21.7102 22.5265 22.0408 22.1224 22.0408H17.4694V26.6939C17.4694 27.0981 17.1388 27.4286 16.7347 27.4286H15.2653C14.8612 27.4286 14.5306 27.0981 14.5306 26.6939V22.0408H9.87756C9.47346 22.0408 9.14286 21.7102 9.14286 21.3061V19.8367C9.14286 19.4327 9.47346 19.102 9.87756 19.102H14.5306V14.449C14.5306 14.0449 14.8612 13.7143 15.2653 13.7143H16.7347C17.1388 13.7143 17.4694 14.0449 17.4694 14.449V19.102H22.1224C22.5265 19.102 22.8571 19.4327 22.8571 19.8367ZM29.7143 11.4286V29.3534C29.7143 29.5518 29.504 29.7143 29.2469 29.7143H2.75326C2.49611 29.7143 2.28571 29.5518 2.28571 29.3534V11.4286H29.7143Z"></path>
</svg>