<svg viewBox="0 0 32 32" fill="currentColor" xmlns="http://www.w3.org/2000/svg" aria-hidden="true" class="flex-shrink-0 pointer-events-none text-gray w-8 h-8 ">
	<path fill-rule="evenodd" clip-rule="evenodd" d="M18.8307 3.17187C19.6091 3.95089 20 4.89638 20 6.00166C20 7.11028 19.6091 8.05243 18.8307 8.83146C18.0489 9.61049 17.1059 10 15.9983 10C14.8941 10 13.9477 9.61049 13.1693 8.83146C12.3875 8.05243 12 7.11028 12 6.00166C12 4.89638 12.3875 3.95089 13.1693 3.17187C13.9477 2.39284 14.8941 2 15.9983 2C17.1059 2 18.0489 2.39284 18.8307 3.17187ZM25.5133 8.82599L20.4467 13.8607V28.071C20.4467 28.5983 20.2533 29.0548 19.8733 29.4309C19.49 29.8103 19.0333 30 18.5 30C17.97 30 17.51 29.8103 17.13 29.4309C16.7467 29.0548 16.5567 28.5983 16.5567 28.071V21.4481H15.4467V28.071C15.4467 28.5983 15.2533 29.0548 14.8733 29.4309C14.49 29.8103 14.0333 30 13.5 30C12.97 30 12.51 29.8103 12.13 29.4309C11.7467 29.0548 11.5567 28.5983 11.5567 28.071V13.8607L6.48667 8.82599C6.16333 8.50449 6 8.11547 6 7.65573C6 7.19598 6.16333 6.80375 6.48667 6.48225C6.82333 6.16075 7.22 6 7.67667 6C8.13333 6 8.52333 6.16075 8.84667 6.48225L12.8067 10.4142H19.1967L23.1533 6.48225C23.4767 6.16075 23.87 6 24.3333 6C24.7967 6 25.19 6.16075 25.5133 6.48225C25.8367 6.81661 26 7.21206 26 7.66537C26 8.11869 25.8367 8.50449 25.5133 8.82599Z"></path>
</svg>