<svg viewBox="0 0 32 32" fill="currentColor" xmlns="http://www.w3.org/2000/svg" aria-hidden="true" class="flex-shrink-0 pointer-events-none w-8 h-8 ">
	<path fill-rule="evenodd" clip-rule="evenodd" d="M31 16C31 24.2843 24.2843 31 16 31C7.71573 31 1 24.2843 1 16C1 7.71573 7.71573 1 16 1C24.2843 1 31 7.71573 31 16ZM32 16C32 24.8366 24.8366 32 16 32C7.16344 32 0 24.8366 0 16C0 7.16344 7.16344 0 16 0C24.8366 0 32 7.16344 32 16ZM15.0047 8.57957C15.0047 8.25948 15.2642 8 15.5843 8C15.9044 8 16.1639 8.25948 16.1639 8.57957V17.5319L22.4764 22.1088C22.721 22.2862 22.7732 22.6293 22.5925 22.8714C22.4153 23.1088 22.0802 23.1599 21.8404 22.986L15.3576 18.2856C15.1973 18.2174 15.0739 18.079 15.0262 17.909C15.0067 17.8443 14.9994 17.7764 15.0047 17.7089V8.57957Z"></path>
</svg>