<svg viewBox="0 0 21 21" fill="currentColor" xmlns="http://www.w3.org/2000/svg" aria-hidden="true" class="flex-shrink-0 pointer-events-none w-4 h-4">
	<path fill-rule="evenodd" clip-rule="evenodd" d="M2.73422 1.13786C2.3437 0.74734 1.71053 0.74734 1.32001 1.13786L1.13762 1.32025C0.747096 1.71078 0.747096 2.34394 1.13762 2.73447L9.21182 10.8087L1.13762 18.8829C0.747095 19.2734 0.747096 19.9066 1.13762 20.2971L1.32001 20.4795C1.71053 20.87 2.3437 20.87 2.73422 20.4795L10.8084 12.4053L18.8826 20.4795C19.2731 20.87 19.9063 20.87 20.2968 20.4795L20.4792 20.2971C20.8697 19.9066 20.8697 19.2734 20.4792 18.8829L12.405 10.8087L20.4792 2.73446C20.8697 2.34394 20.8697 1.71078 20.4792 1.32025L20.2968 1.13786C19.9063 0.74734 19.2731 0.74734 18.8826 1.13786L10.8084 9.21206L2.73422 1.13786Z"></path>
</svg>