<svg width="26" height="22" viewBox="0 0 26 22" fill="none" xmlns="http://www.w3.org/2000/svg" aria-hidden="true" class="flex-shrink-0 pointer-events-none ">
	<path fill-rule="evenodd" clip-rule="evenodd" d="M21.8535 5.6253L4.92315 5.6253C4.5779 5.66359 4.24372 5.82859 4.09141 6.14128C4.0111 6.30719 4.02125 6.35825 4.00002 6.53692C4.0074 6.60438 4.01571 6.67275 4.02402 6.74021C4.06925 6.86875 4.11541 7.00003 4.20126 7.10577C4.33235 7.26713 4.51697 7.38108 4.71821 7.42575C4.78468 7.44125 4.85484 7.44125 4.92315 7.44854L21.8535 7.44854L25 7.44854C25 7.38068 25.0679 6.29352 24.8048 5.96898C24.7762 5.93343 24.7678 5.92523 24.7355 5.89241L19.043 0.245013C19.0089 0.214018 19.0015 0.205814 18.9655 0.176642C18.4771 -0.20715 17.5965 0.0590427 17.4792 0.737288C17.4303 1.02263 17.5328 1.32073 17.7368 1.53496L21.8535 5.6253ZM4.15106 14.5508H1.00002C1.00042 14.7919 0.993031 15.2502 1.00042 15.5124C1.0198 15.7346 1.11304 15.9423 1.26905 16.1053L6.96249 21.7487C6.99572 21.7797 7.00311 21.7879 7.03911 21.817C7.44067 22.1321 8.1164 22.0301 8.39703 21.5894C8.61766 21.2433 8.55858 20.7625 8.2678 20.4602L4.15106 16.3721L21.0814 16.3721C21.4276 16.3338 21.7609 16.169 21.9132 15.8567C22.0941 15.4851 21.9833 15.0052 21.6575 14.7493C21.4959 14.6218 21.2901 14.5736 21.0814 14.5508L4.15106 14.5508Z" fill="currentColor"></path>
</svg>