<svg viewBox="0 0 32 32" fill="currentColor" xmlns="http://www.w3.org/2000/svg" aria-hidden="true" class="flex-shrink-0 pointer-events-none text-gray w-8 h-8 ">
	<path fill-rule="evenodd" clip-rule="evenodd" d="M18.8233 8.65275C18.04 9.4165 17.1 9.8 16 9.8C14.9 9.8 13.9567 9.4165 13.1733 8.65275C12.39 7.89225 12 6.9725 12 5.9C12 4.8275 12.39 3.90775 13.1733 3.144C13.9567 2.38025 14.9 2 16 2C17.1 2 18.04 2.38025 18.8233 3.144C19.6067 3.90775 20 4.8275 20 5.9C20 6.9725 19.6067 7.89225 18.8233 8.65275ZM13.7729 20.9239L12.5998 22.6011L13.9589 24.6456C14.2709 25.0993 14.3879 25.6136 14.3099 26.1918C14.2319 26.7669 13.9889 27.2301 13.5839 27.5815C13.2388 27.8594 12.8638 28 12.4587 28C11.8347 28 11.3336 27.7189 10.9586 27.1598L8.70837 23.8055C8.45935 23.4189 8.33333 22.994 8.33333 22.5212C8.33333 22.0516 8.47435 21.6203 8.75638 21.237L10.9136 18.25L13.7729 20.9239ZM21.0881 18.25L18.2274 20.9239L19.4011 22.6011L18.0413 24.6424C17.7291 25.0993 17.612 25.6136 17.6901 26.1886C17.7681 26.7669 18.0113 27.2301 18.4165 27.5783C18.7587 27.8594 19.1339 28 19.5422 28C20.1666 28 20.6649 27.7189 21.0401 27.1598L23.2914 23.8055C23.5406 23.4189 23.6667 22.994 23.6667 22.5212C23.6667 22.0484 23.5256 21.6203 23.2464 21.237L21.0881 18.25ZM22.7166 8.19104C23.2032 7.89993 23.7232 7.79596 24.2799 7.87616C24.8365 7.95637 25.2865 8.22669 25.6332 8.68117C25.9465 9.13566 26.0565 9.62283 25.9732 10.1427C25.8832 10.6625 25.5998 11.0843 25.1132 11.4081L22.9765 12.7745C22.1799 13.3271 21.2399 13.7815 20.1666 14.138V15.65H11.8334V14.138C10.7568 13.7815 9.82012 13.3271 9.02013 12.7745L6.88684 11.4081C6.40018 11.0843 6.11352 10.6625 6.02685 10.1427C5.94019 9.62283 6.06352 9.13566 6.39351 8.68117C6.72018 8.22669 7.1635 7.95637 7.72016 7.87616C8.27681 7.79596 8.7968 7.89993 9.28013 8.19104L11.4168 9.60797C12.7701 10.4843 14.3 10.9209 16 10.9209C17.7 10.9209 19.2299 10.4843 20.5833 9.60797L22.7166 8.19104Z"></path>
</svg>