<svg viewBox="0 0 24 24" fill="currentColor" xmlns="http://www.w3.org/2000/svg" aria-hidden="true" class="flex-shrink-0 pointer-events-none w-6 h-6">
	<path fill-rule="evenodd" clip-rule="evenodd" d="M12 0C5.3728 0 0 5.3728 0 12C0 18.6272 5.3728 24 12 24C18.6272 24 24 18.6272 24 12C24 5.3728 18.6272 0 12 0ZM12 23C5.93477 23 1 18.0652 1 12C1 5.93477 5.93477 1 12 1C18.0652 1 23 5.93477 23 12C23 18.0652 18.0652 23 12 23ZM18.2222 11.2222H5.77778C5.34844 11.2222 5 11.5707 5 12C5 12.4293 5.34844 12.7778 5.77778 12.7778H18.2222C18.6516 12.7778 19 12.4293 19 12C19 11.5707 18.6516 11.2222 18.2222 11.2222Z"></path>
</svg>