<svg width="36" height="30" viewBox="0 0 36 30" fill="currentColor" xmlns="http://www.w3.org/2000/svg" aria-hidden="true" class="flex-shrink-0 pointer-events-none">
	<path d="M15.0002 12.9998L25.0002 2.9998C26.1002 1.9998 27.3002 1.2998 28.8002 0.799805H18.8002C18.7002 0.799805 18.6002 0.799805 18.4002 0.799805H18.2002H18.1002C17.8002 0.799805 17.5002 0.899805 17.2002 0.899805H17.0002C16.0002 1.1998 15.2002 1.5998 14.4002 2.1998C14.2002 2.3998 14.0002 2.4998 13.8002 2.6998L1.7002 14.9998H10.0002C11.9002 14.9998 13.7002 14.2998 15.0002 12.9998Z" fill="#996A4E"></path>
	<path d="M13.8 17.1L3.9 27C2.9 28 1.6 28.8 0 29.2H10C10.2 29.2 10.4 29.2 10.5 29.2H10.6C10.9 29.2 11.2 29.1 11.5 29.1H11.7C12.6 28.8 13.5 28.4 14.3 27.8C14.5 27.6 14.7 27.5 14.9 27.3L27.2 15H18.9C17 15 15.2 15.8 13.8 17.1Z" fill="#84754E"></path>
	<path d="M31.2999 8.5998C31.2999 8.4998 31.2999 8.4998 31.3999 8.4998C32.4999 8.1998 35.6999 7.7998 35.6999 7.7998C35.6999 7.7998 32.4999 7.5998 31.3999 7.2998L31.2999 7.1998C31.3999 6.7998 32.3999 5.4998 32.3999 5.4998L30.6999 6.6998C30.6999 6.6998 30.5999 6.6998 30.5999 6.5998C30.2999 4.8998 29.9999 1.7998 29.9999 1.7998C29.9999 1.7998 29.7999 4.8998 29.3999 6.5998C29.3999 6.5998 29.3999 6.6998 29.2999 6.6998L27.5999 5.4998C27.5999 5.4998 28.5999 6.7998 28.7999 7.1998C28.7999 7.1998 28.7999 7.2998 28.6999 7.2998C27.5999 7.5998 24.3999 7.8998 24.3999 7.8998C24.3999 7.8998 27.5999 8.1998 28.6999 8.5998L28.7999 8.6998C28.6999 9.0998 27.6999 10.2998 27.6999 10.2998L29.3999 9.2998C29.3999 9.2998 29.4999 9.2998 29.4999 9.3998C29.7999 11.0998 30.0999 14.1998 30.0999 14.1998C30.0999 14.1998 30.2999 11.0998 30.6999 9.3998C30.6999 9.3998 30.6999 9.2998 30.7999 9.2998L32.4999 10.2998C32.4999 10.1998 31.4999 8.9998 31.2999 8.5998Z" fill="#996A4E"></path>
</svg>