<svg viewBox="0 0 32 32" fill="currentColor" xmlns="http://www.w3.org/2000/svg" aria-hidden="true" class="flex-shrink-0 pointer-events-none w-8 h-8 ">
	<path fill-rule="evenodd" clip-rule="evenodd" d="M31 16C31 24.2843 24.2843 31 16 31C7.71573 31 1 24.2843 1 16C1 7.71573 7.71573 1 16 1C24.2843 1 31 7.71573 31 16ZM32 16C32 24.8366 24.8366 32 16 32C7.16344 32 0 24.8366 0 16C0 7.16344 7.16344 0 16 0C24.8366 0 32 7.16344 32 16ZM24.0923 14.5013C24.4586 14.5691 24.9261 14.6556 24.9952 14.9165C25.0781 15.2271 24.0801 16.0475 22.8651 16.4098L22.7467 16.4436L14.0905 18.7801L14.0886 18.7777C12.7373 19.0945 10.2248 18.9939 9.0511 18.9469C8.93285 18.9421 8.82819 18.9379 8.73967 18.9348C8.59519 18.9296 8.31571 18.7996 8.24465 18.5327C8.17755 18.2818 8.28571 18.106 8.53361 18.0213L7 15.8363L7.89925 15.5973L11.1421 17.3146C11.6702 17.1721 12.1021 17.056 12.232 17.0211C12.2565 17.0145 12.2703 17.0108 12.2719 17.0103L14.4616 16.4194L12.0868 13.3042L12.9355 13L18.777 15.2545L22.1853 14.3343C23.1121 14.0915 23.3925 14.2372 23.6263 14.3587C23.7032 14.3986 23.775 14.4359 23.863 14.456C23.9302 14.4713 24.0086 14.4858 24.0923 14.5013Z"></path>
</svg>